<mxfile host="app.diagrams.net" agent="Mozilla/5.0 (Windows NT 10.0; Win64; x64) AppleWebKit/537.36 (KHTML, like Gecko) Chrome/136.0.0.0 Safari/537.36" version="27.1.1">
  <diagram name="Page-1" id="PWdMtQFU4OBxkl7ewaEB">
    <mxGraphModel dx="1226" dy="675" grid="1" gridSize="10" guides="1" tooltips="1" connect="1" arrows="0" fold="1" page="1" pageScale="1" pageWidth="850" pageHeight="1100" background="none" math="0" shadow="0" adaptiveColors="none">
      <root>
        <mxCell id="0" />
        <mxCell id="1" parent="0" />
        <mxCell id="us3CnqQdpKLgeB0TEY4D-1" value="LOGIN Dipanggil" style="rounded=1;whiteSpace=wrap;html=1;" vertex="1" parent="1">
          <mxGeometry x="300" y="100" width="120" height="60" as="geometry" />
        </mxCell>
        <mxCell id="us3CnqQdpKLgeB0TEY4D-2" value="Input Username" style="shape=parallelogram;perimeter=parallelogramPerimeter;whiteSpace=wrap;html=1;fixedSize=1;" vertex="1" parent="1">
          <mxGeometry x="300" y="200" width="120" height="60" as="geometry" />
        </mxCell>
        <mxCell id="us3CnqQdpKLgeB0TEY4D-3" value="" style="endArrow=classic;html=1;rounded=0;exitX=0.5;exitY=1;exitDx=0;exitDy=0;entryX=0.5;entryY=0;entryDx=0;entryDy=0;" edge="1" parent="1" source="us3CnqQdpKLgeB0TEY4D-1" target="us3CnqQdpKLgeB0TEY4D-2">
          <mxGeometry width="50" height="50" relative="1" as="geometry">
            <mxPoint x="400" y="330" as="sourcePoint" />
            <mxPoint x="450" y="280" as="targetPoint" />
          </mxGeometry>
        </mxCell>
        <mxCell id="us3CnqQdpKLgeB0TEY4D-4" value="Input Password" style="shape=parallelogram;perimeter=parallelogramPerimeter;whiteSpace=wrap;html=1;fixedSize=1;" vertex="1" parent="1">
          <mxGeometry x="300" y="300" width="120" height="60" as="geometry" />
        </mxCell>
        <mxCell id="us3CnqQdpKLgeB0TEY4D-6" value="" style="endArrow=classic;html=1;rounded=0;exitX=0.5;exitY=1;exitDx=0;exitDy=0;entryX=0.5;entryY=0;entryDx=0;entryDy=0;" edge="1" parent="1" source="us3CnqQdpKLgeB0TEY4D-2" target="us3CnqQdpKLgeB0TEY4D-4">
          <mxGeometry width="50" height="50" relative="1" as="geometry">
            <mxPoint x="400" y="330" as="sourcePoint" />
            <mxPoint x="420" y="270" as="targetPoint" />
          </mxGeometry>
        </mxCell>
        <mxCell id="us3CnqQdpKLgeB0TEY4D-25" style="edgeStyle=orthogonalEdgeStyle;rounded=0;orthogonalLoop=1;jettySize=auto;html=1;exitX=0.5;exitY=1;exitDx=0;exitDy=0;entryX=0.5;entryY=0;entryDx=0;entryDy=0;" edge="1" parent="1" source="us3CnqQdpKLgeB0TEY4D-7" target="us3CnqQdpKLgeB0TEY4D-14">
          <mxGeometry relative="1" as="geometry" />
        </mxCell>
        <mxCell id="us3CnqQdpKLgeB0TEY4D-26" style="edgeStyle=orthogonalEdgeStyle;rounded=0;orthogonalLoop=1;jettySize=auto;html=1;exitX=0;exitY=0.5;exitDx=0;exitDy=0;entryX=0.5;entryY=0;entryDx=0;entryDy=0;" edge="1" parent="1" source="us3CnqQdpKLgeB0TEY4D-7" target="us3CnqQdpKLgeB0TEY4D-13">
          <mxGeometry relative="1" as="geometry" />
        </mxCell>
        <mxCell id="us3CnqQdpKLgeB0TEY4D-7" value="Cek Username &amp;amp; Password Ada di Database" style="rhombus;whiteSpace=wrap;html=1;" vertex="1" parent="1">
          <mxGeometry x="300" y="390" width="120" height="120" as="geometry" />
        </mxCell>
        <mxCell id="us3CnqQdpKLgeB0TEY4D-8" value="" style="endArrow=classic;html=1;rounded=0;exitX=0.5;exitY=1;exitDx=0;exitDy=0;entryX=0.5;entryY=0;entryDx=0;entryDy=0;" edge="1" parent="1" source="us3CnqQdpKLgeB0TEY4D-4" target="us3CnqQdpKLgeB0TEY4D-7">
          <mxGeometry width="50" height="50" relative="1" as="geometry">
            <mxPoint x="400" y="450" as="sourcePoint" />
            <mxPoint x="450" y="400" as="targetPoint" />
          </mxGeometry>
        </mxCell>
        <mxCell id="us3CnqQdpKLgeB0TEY4D-12" value="Masuk Ke Menu Pasien" style="rounded=1;whiteSpace=wrap;html=1;" vertex="1" parent="1">
          <mxGeometry x="450" y="565" width="100" height="50" as="geometry" />
        </mxCell>
        <mxCell id="us3CnqQdpKLgeB0TEY4D-13" value="Keluar Program" style="rounded=1;whiteSpace=wrap;html=1;" vertex="1" parent="1">
          <mxGeometry x="130" y="680" width="120" height="50" as="geometry" />
        </mxCell>
        <mxCell id="us3CnqQdpKLgeB0TEY4D-23" style="edgeStyle=orthogonalEdgeStyle;rounded=0;orthogonalLoop=1;jettySize=auto;html=1;exitX=0.5;exitY=1;exitDx=0;exitDy=0;entryX=0.5;entryY=0;entryDx=0;entryDy=0;" edge="1" parent="1" source="us3CnqQdpKLgeB0TEY4D-14" target="us3CnqQdpKLgeB0TEY4D-15">
          <mxGeometry relative="1" as="geometry" />
        </mxCell>
        <mxCell id="us3CnqQdpKLgeB0TEY4D-24" style="edgeStyle=orthogonalEdgeStyle;rounded=0;orthogonalLoop=1;jettySize=auto;html=1;exitX=1;exitY=0.5;exitDx=0;exitDy=0;entryX=0;entryY=0.5;entryDx=0;entryDy=0;" edge="1" parent="1" source="us3CnqQdpKLgeB0TEY4D-14" target="us3CnqQdpKLgeB0TEY4D-12">
          <mxGeometry relative="1" as="geometry" />
        </mxCell>
        <mxCell id="us3CnqQdpKLgeB0TEY4D-14" value="Role Adalah Pasien" style="rhombus;whiteSpace=wrap;html=1;" vertex="1" parent="1">
          <mxGeometry x="312.5" y="540" width="95" height="100" as="geometry" />
        </mxCell>
        <mxCell id="us3CnqQdpKLgeB0TEY4D-21" style="edgeStyle=orthogonalEdgeStyle;rounded=0;orthogonalLoop=1;jettySize=auto;html=1;exitX=0.5;exitY=1;exitDx=0;exitDy=0;entryX=0.5;entryY=0;entryDx=0;entryDy=0;" edge="1" parent="1" source="us3CnqQdpKLgeB0TEY4D-15" target="us3CnqQdpKLgeB0TEY4D-16">
          <mxGeometry relative="1" as="geometry" />
        </mxCell>
        <mxCell id="us3CnqQdpKLgeB0TEY4D-22" style="edgeStyle=orthogonalEdgeStyle;rounded=0;orthogonalLoop=1;jettySize=auto;html=1;exitX=1;exitY=0.5;exitDx=0;exitDy=0;entryX=0;entryY=0.5;entryDx=0;entryDy=0;" edge="1" parent="1" source="us3CnqQdpKLgeB0TEY4D-15" target="us3CnqQdpKLgeB0TEY4D-17">
          <mxGeometry relative="1" as="geometry" />
        </mxCell>
        <mxCell id="us3CnqQdpKLgeB0TEY4D-15" value="Role Adalah Dokter" style="rhombus;whiteSpace=wrap;html=1;" vertex="1" parent="1">
          <mxGeometry x="312.5" y="680" width="95" height="90" as="geometry" />
        </mxCell>
        <mxCell id="us3CnqQdpKLgeB0TEY4D-20" style="edgeStyle=orthogonalEdgeStyle;rounded=0;orthogonalLoop=1;jettySize=auto;html=1;exitX=1;exitY=0.5;exitDx=0;exitDy=0;entryX=0;entryY=0.5;entryDx=0;entryDy=0;" edge="1" parent="1" source="us3CnqQdpKLgeB0TEY4D-16" target="us3CnqQdpKLgeB0TEY4D-18">
          <mxGeometry relative="1" as="geometry" />
        </mxCell>
        <mxCell id="us3CnqQdpKLgeB0TEY4D-27" style="edgeStyle=orthogonalEdgeStyle;rounded=0;orthogonalLoop=1;jettySize=auto;html=1;exitX=0;exitY=0.5;exitDx=0;exitDy=0;entryX=0.5;entryY=1;entryDx=0;entryDy=0;" edge="1" parent="1" source="us3CnqQdpKLgeB0TEY4D-16" target="us3CnqQdpKLgeB0TEY4D-13">
          <mxGeometry relative="1" as="geometry" />
        </mxCell>
        <mxCell id="us3CnqQdpKLgeB0TEY4D-16" value="Role Adalah Manajer" style="rhombus;whiteSpace=wrap;html=1;" vertex="1" parent="1">
          <mxGeometry x="310" y="810" width="100" height="100" as="geometry" />
        </mxCell>
        <mxCell id="us3CnqQdpKLgeB0TEY4D-17" value="Masuk Ke Menu Dokter" style="rounded=1;whiteSpace=wrap;html=1;" vertex="1" parent="1">
          <mxGeometry x="450" y="702.5" width="100" height="45" as="geometry" />
        </mxCell>
        <mxCell id="us3CnqQdpKLgeB0TEY4D-18" value="Masuk Ke Menu Manajer" style="rounded=1;whiteSpace=wrap;html=1;" vertex="1" parent="1">
          <mxGeometry x="450" y="832.5" width="110" height="55" as="geometry" />
        </mxCell>
        <mxCell id="us3CnqQdpKLgeB0TEY4D-28" value="&lt;font style=&quot;font-size: 11px;&quot;&gt;YES&lt;/font&gt;" style="text;html=1;align=center;verticalAlign=middle;whiteSpace=wrap;rounded=0;" vertex="1" parent="1">
          <mxGeometry x="365" y="500" width="35" height="30" as="geometry" />
        </mxCell>
        <mxCell id="us3CnqQdpKLgeB0TEY4D-29" value="NO" style="text;html=1;align=center;verticalAlign=middle;whiteSpace=wrap;rounded=0;" vertex="1" parent="1">
          <mxGeometry x="270" y="450" width="30" height="30" as="geometry" />
        </mxCell>
        <mxCell id="us3CnqQdpKLgeB0TEY4D-31" value="YES" style="text;html=1;align=center;verticalAlign=middle;whiteSpace=wrap;rounded=0;" vertex="1" parent="1">
          <mxGeometry x="390" y="590" width="60" height="30" as="geometry" />
        </mxCell>
        <mxCell id="us3CnqQdpKLgeB0TEY4D-32" value="NO" style="text;html=1;align=center;verticalAlign=middle;whiteSpace=wrap;rounded=0;" vertex="1" parent="1">
          <mxGeometry x="350" y="640" width="60" height="30" as="geometry" />
        </mxCell>
        <mxCell id="us3CnqQdpKLgeB0TEY4D-33" value="YES" style="text;html=1;align=center;verticalAlign=middle;whiteSpace=wrap;rounded=0;" vertex="1" parent="1">
          <mxGeometry x="395" y="730" width="60" height="30" as="geometry" />
        </mxCell>
        <mxCell id="us3CnqQdpKLgeB0TEY4D-34" value="NO" style="text;html=1;align=center;verticalAlign=middle;whiteSpace=wrap;rounded=0;" vertex="1" parent="1">
          <mxGeometry x="352.5" y="770" width="60" height="30" as="geometry" />
        </mxCell>
        <mxCell id="us3CnqQdpKLgeB0TEY4D-35" value="YES" style="text;html=1;align=center;verticalAlign=middle;whiteSpace=wrap;rounded=0;" vertex="1" parent="1">
          <mxGeometry x="395" y="870" width="60" height="30" as="geometry" />
        </mxCell>
        <mxCell id="us3CnqQdpKLgeB0TEY4D-36" value="NO" style="text;html=1;align=center;verticalAlign=middle;whiteSpace=wrap;rounded=0;" vertex="1" parent="1">
          <mxGeometry x="255" y="870" width="60" height="30" as="geometry" />
        </mxCell>
      </root>
    </mxGraphModel>
  </diagram>
</mxfile>
